HIERARCHY
ROOT Hips
{
	OFFSET 0.000000 0.000000 0.000000
	CHANNELS 6 Xposition Yposition Zposition Zrotation Yrotation Xrotation 
	JOINT LHipJoint
	{
		OFFSET 0.000000 0.000000 0.000000
		CHANNELS 3 Zrotation Yrotation Xrotation
		JOINT LeftUpLeg
		{
			OFFSET 1.363060 -1.794630 0.839290
			CHANNELS 3 Zrotation Yrotation Xrotation
			JOINT LeftLeg
			{
				OFFSET 2.448110 -6.726130 0.000000
				CHANNELS 3 Zrotation Yrotation Xrotation
				JOINT LeftFoot
				{
					OFFSET 2.562200 -7.039590 0.000000
					CHANNELS 3 Zrotation Yrotation Xrotation
					JOINT LeftToeBase
					{
						OFFSET 0.157640 -0.433110 2.322550
						CHANNELS 3 Zrotation Yrotation Xrotation
						End Site
						{
							OFFSET 0.000000 0.000000 0.000000
						}
					}
				}
			}
		}
	}
	JOINT RHipJoint
	{
		OFFSET 0.000000 0.000000 0.000000
		CHANNELS 3 Zrotation Yrotation Xrotation
		JOINT RightUpLeg
		{
			OFFSET -1.305520 -1.794630 0.839290
			CHANNELS 3 Zrotation Yrotation Xrotation
			JOINT RightLeg
			{
				OFFSET -2.542530 -6.985550 0.000000
				CHANNELS 3 Zrotation Yrotation Xrotation
				JOINT RightFoot
				{
					OFFSET -2.568260 -7.056230 0.000000
					CHANNELS 3 Zrotation Yrotation Xrotation
					JOINT RightToeBase
					{
						OFFSET -0.164730 -0.452590 2.363150
						CHANNELS 3 Zrotation Yrotation Xrotation
						End Site
						{
							OFFSET 0.000000 0.000000 0.000000
						}
					}
				}
			}
		}
	}
	JOINT LowerBack
	{
		OFFSET 0.000000 0.000000 0.000000
		CHANNELS 3 Zrotation Yrotation Xrotation
		JOINT Spine
		{
			OFFSET 0.028270 2.035590 -0.193380
			CHANNELS 3 Zrotation Yrotation Xrotation
			JOINT Spine1
			{
				OFFSET 0.056720 2.048850 -0.042750
				CHANNELS 3 Zrotation Yrotation Xrotation
				JOINT Neck
				{
					OFFSET 0.000000 0.000000 0.000000
					CHANNELS 3 Zrotation Yrotation Xrotation
					JOINT Neck1
					{
						OFFSET -0.054170 1.746240 0.172020
						CHANNELS 3 Zrotation Yrotation Xrotation
						JOINT Head
						{
							OFFSET 0.104070 1.761360 -0.123970
							CHANNELS 3 Zrotation Yrotation Xrotation
							End Site
							{
								OFFSET 0.000000 0.000000 0.000000
							}
						}
					}
				}
				JOINT LeftShoulder
				{
					OFFSET 0.000000 0.000000 0.000000
					CHANNELS 3 Zrotation Yrotation Xrotation
					JOINT LeftArm
					{
						OFFSET 3.362410 1.200890 -0.311210
						CHANNELS 3 Zrotation Yrotation Xrotation
						JOINT LeftForeArm
						{
							OFFSET 4.983000 -0.000000 -0.000000
							CHANNELS 3 Zrotation Yrotation Xrotation
							JOINT LeftHand
							{
								OFFSET 3.483560 -0.000000 -0.000000
								CHANNELS 3 Zrotation Yrotation Xrotation
								JOINT LeftFingerBase
								{
									OFFSET 0.000000 0.000000 0.000000
									CHANNELS 3 Zrotation Yrotation Xrotation
									JOINT LeftHandIndex1
									{
										OFFSET 0.715260 -0.000000 -0.000000
										CHANNELS 3 Zrotation Yrotation Xrotation
										End Site
										{
											OFFSET 0.000000 0.000000 0.000000
										}
									}
								}
								JOINT LThumb
								{
									OFFSET 0.000000 0.000000 0.000000
									CHANNELS 3 Zrotation Yrotation Xrotation
									End Site
									{
										OFFSET 0.000000 0.000000 0.000000
									}
								}
							}
						}
					}
				}
				JOINT RightShoulder
				{
					OFFSET 0.000000 0.000000 0.000000
					CHANNELS 3 Zrotation Yrotation Xrotation
					JOINT RightArm
					{
						OFFSET -3.136600 1.374050 -0.404650
						CHANNELS 3 Zrotation Yrotation Xrotation
						JOINT RightForeArm
						{
							OFFSET -5.241900 -0.000000 -0.000000
							CHANNELS 3 Zrotation Yrotation Xrotation
							JOINT RightHand
							{
								OFFSET -3.444170 -0.000000 -0.000000
								CHANNELS 3 Zrotation Yrotation Xrotation
								JOINT RightFingerBase
								{
									OFFSET 0.000000 0.000000 0.000000
									CHANNELS 3 Zrotation Yrotation Xrotation
									JOINT RightHandIndex1
									{
										OFFSET -0.622530 -0.000000 -0.000000
										CHANNELS 3 Zrotation Yrotation Xrotation
										End Site
										{
											OFFSET 0.000000 0.000000 0.000000
										}
									}
								}
								JOINT RThumb
								{
									OFFSET 0.000000 0.000000 0.000000
									CHANNELS 3 Zrotation Yrotation Xrotation
									End Site
									{
										OFFSET 0.000000 0.000000 0.000000
									}
								}
							}
						}
					}
				}
			}
		}
	}
}
MOTION
Frames: 11
Frame Time: 0.008333
0.207571 24.735641 -5.944156 -1.199692 -0.063230 9.846529 -0.540373 -0.189504 0.238417 -13.670746 5.518811 -23.485043 1.898015 10.406752 28.689140 2.128460 9.366536 33.911500 0.001800 -0.275800 -0.757800 -1.650159 -0.255545 -0.257095 20.175137 -1.347400 -24.271142 -6.940856 -15.665313 48.246948 -0.110041 -12.443830 22.228619 -0.751500 -5.536800 15.446300 -0.726010 0.700494 3.585416 0.863382 1.004854 -2.095445 0.582204 0.235701 4.065524 -3.909230 -2.067501 -5.113191 4.532279 -3.019609 29.083147 0.965400 -0.847500 9.995500 9.322680 5.047267 0.289486 -82.071483 -3.626569 37.064599 27.720843 -42.185157 -11.828504 0.326131 -0.622372 -31.159408 28.838764 -11.702197 -5.954800 -7.125000 0.000000 0.000000 1.255300 17.580200 -0.817700 -8.520465 -4.269926 -0.057860 84.225512 -2.709102 24.894543 -18.649100 33.732675 -6.522466 0.647115 0.860753 21.599923 -25.057173 -22.819438 10.867200 7.125000 0.000000 0.000000 4.311300 -56.055600 -1.170700 
0.209291 24.836239 -5.797005 -1.111495 -0.131095 10.104086 -0.567857 -0.264163 0.188526 -13.755069 5.466352 -24.171458 1.612568 10.017786 27.454693 2.050039 9.089763 33.332911 0.003500 -0.382400 -1.050700 -1.649176 -0.202054 -0.261439 20.065482 -0.936549 -25.296763 -6.860183 -15.660026 48.091187 -0.052332 -11.999475 21.452503 -0.677900 -5.264400 14.664300 -0.824946 0.683053 3.596730 0.855633 0.977052 -2.101450 0.606630 0.220588 4.065536 -3.894194 -2.002321 -5.231527 4.448474 -2.895084 29.185005 0.942200 -0.791800 10.066000 9.318878 5.070366 0.281815 -82.859761 -3.266138 36.435388 26.836028 -41.439689 -11.237706 0.316223 -0.630446 -30.742418 28.970933 -11.770993 -6.023600 -7.125000 0.000000 0.000000 1.347700 17.491400 -0.880500 -8.512792 -4.273133 -0.047052 84.616148 -2.390566 24.632467 -17.907199 32.865673 -6.095671 0.659608 0.862125 22.137606 -25.177199 -22.833243 10.935300 7.125000 0.000000 0.000000 4.188800 -56.106700 -1.142600 
0.211417 24.923072 -5.648841 -1.058299 -0.128681 10.322729 -0.592589 -0.338073 0.137297 -13.781456 5.391532 -24.842869 1.346031 9.642512 26.290637 2.001996 8.701945 32.822795 0.004800 -0.445800 -1.225000 -1.642132 -0.151284 -0.265077 19.995700 -0.610105 -26.184335 -6.703864 -15.584240 47.652444 -0.009989 -11.570361 20.775806 -0.608600 -4.993400 13.889600 -0.885150 0.630148 3.637014 0.860709 0.903523 -2.106595 0.645156 0.182931 4.056523 -3.873928 -1.926647 -5.311702 4.357636 -2.755480 29.230867 0.914700 -0.730200 10.103100 9.316655 5.091593 0.277231 -83.625868 -2.907735 35.816596 25.941489 -40.661236 -10.648124 0.305780 -0.638367 -30.342849 29.077437 -11.809851 -6.070800 -7.125000 0.000000 0.000000 1.424800 17.438700 -0.932600 -8.503110 -4.275810 -0.035992 84.971744 -2.077805 24.358169 -17.229179 32.049458 -5.712940 0.671367 0.863286 22.679930 -25.267250 -22.859776 10.994100 7.125000 0.000000 0.000000 4.103800 -56.164600 -1.125100 
0.213643 24.996142 -5.499665 -1.038602 -0.055046 10.485811 -0.613262 -0.409181 0.084614 -13.749780 5.283129 -25.480810 1.104931 9.291184 25.219989 1.968822 8.262553 32.338688 0.005600 -0.485100 -1.333000 -1.629000 -0.103972 -0.268759 19.963723 -0.373706 -26.918288 -6.481722 -15.442115 46.959600 0.020200 -11.172614 20.199139 -0.549200 -4.747600 13.190000 -0.902189 0.548810 3.724062 0.874898 0.794223 -2.107275 0.683308 0.127849 4.044594 -3.846845 -1.851684 -5.391249 4.275169 -2.620375 29.247241 0.887800 -0.669900 10.128800 9.315018 5.112015 0.274789 -84.356867 -2.550249 35.228424 25.070425 -39.878377 -10.081920 0.295158 -0.646178 -29.976261 29.149664 -11.830310 -6.099900 -7.125000 0.000000 0.000000 1.479800 17.410200 -0.969500 -8.493295 -4.278479 -0.025047 85.318920 -1.786520 24.030654 -16.625053 31.302362 -5.378110 0.682375 0.863559 23.230560 -25.337139 -22.890291 11.044200 7.125000 0.000000 0.000000 4.042300 -56.221000 -1.113700 
0.215768 25.055347 -5.349579 -1.043172 0.065694 10.584559 -0.630450 -0.475662 0.030721 -13.667325 5.136157 -26.069831 0.892885 8.969325 24.249001 1.938389 7.857790 31.873334 0.005700 -0.486500 -1.336700 -1.609416 -0.060389 -0.272365 19.954537 -0.203485 -27.492887 -6.205029 -15.239530 46.045992 0.041442 -10.822181 19.720774 -0.500100 -4.533600 12.582800 -0.887714 0.452491 3.863631 0.893465 0.666962 -2.102464 0.713648 0.064873 4.026774 -3.820504 -1.785603 -5.453273 4.213148 -2.505676 29.231824 0.866700 -0.618300 10.138000 9.313250 5.130122 0.274874 -85.035449 -2.218680 34.703720 24.209032 -39.078362 -9.529762 0.284208 -0.653850 -29.665024 29.188116 -11.845552 -6.118300 -7.125000 0.000000 0.000000 1.512200 17.391100 -0.991400 -8.485510 -4.281694 -0.013582 85.672892 -1.555272 23.647533 -16.119842 30.662456 -5.102785 0.692339 0.862284 23.772195 -25.398027 -22.906141 11.082900 7.125000 0.000000 0.000000 3.984700 -56.257900 -1.101400 
0.217286 25.100889 -5.199290 -1.058252 0.239747 10.614820 -0.645280 -0.536668 -0.024174 -13.542128 4.933846 -26.598988 0.709852 8.679058 23.375041 1.903877 7.538747 31.426564 0.005000 -0.457800 -1.258000 -1.582867 -0.020947 -0.275590 19.952713 -0.102531 -27.916357 -5.885950 -14.981911 44.945829 0.057603 -10.537561 19.336421 -0.461300 -4.356700 12.082500 -0.852224 0.347686 4.061773 0.912700 0.530259 -2.093424 0.729595 -0.001800 3.995267 -3.790490 -1.727968 -5.502918 4.179607 -2.414455 29.207661 0.853800 -0.574900 10.142300 9.311100 5.146013 0.276670 -85.651136 -1.897563 34.275542 23.385387 -38.288288 -9.009400 0.273402 -0.661235 -29.408284 29.162089 -11.825722 -6.102200 -7.125000 0.000000 0.000000 1.502900 17.418300 -0.984400 -8.480700 -4.285246 -0.001750 86.049132 -1.401151 23.178852 -15.707227 30.128785 -4.881570 0.701135 0.859179 24.313630 -25.446525 -22.898812 11.104700 7.125000 0.000000 0.000000 3.932100 -56.265100 -1.087500 
0.217995 25.132768 -5.048292 -1.075809 0.443948 10.581908 -0.659241 -0.591470 -0.079813 -13.382837 4.681554 -27.060659 0.553872 8.419229 22.588103 1.858223 7.348658 30.992602 0.003800 -0.398500 -1.094900 -1.549673 0.014565 -0.278976 19.942984 -0.048929 -28.195781 -5.534618 -14.674644 43.688357 0.071395 -10.325279 19.036847 -0.431300 -4.214700 11.681400 -0.811869 0.240542 4.301782 0.931481 0.391806 -2.076485 0.738774 -0.069439 3.971503 -3.764692 -1.681369 -5.568265 4.172947 -2.346442 29.191442 0.850700 -0.540300 10.154400 9.308197 5.161701 0.280133 -86.213853 -1.588219 33.932486 22.614921 -37.527500 -8.530029 0.262884 -0.668446 -29.178637 29.089183 -11.791331 -6.066700 -7.125000 0.000000 0.000000 1.462100 17.467200 -0.956100 -8.478883 -4.290572 0.010129 86.441523 -1.315354 22.651004 -15.388771 29.709556 -4.713317 0.708625 0.854553 24.831116 -25.491681 -22.862177 11.111500 7.125000 0.000000 0.000000 3.872600 -56.238100 -1.068500 
0.217691 25.151086 -4.896688 -1.088926 0.665944 10.491657 -0.673378 -0.639720 -0.134645 -13.195778 4.383299 -27.455791 0.422110 8.187480 21.878505 1.797421 7.296472 30.562595 0.002700 -0.337500 -0.927400 -1.510009 0.046088 -0.281225 19.914340 -0.021194 -28.343578 -5.160360 -14.322822 42.300221 0.084014 -10.193888 18.827552 -0.404900 -4.084900 11.315600 -0.780109 0.138745 4.584610 0.948805 0.261418 -2.057961 0.746994 -0.133177 3.930576 -3.738689 -1.646617 -5.627931 4.185050 -2.302057 29.193311 0.852900 -0.514600 10.174800 9.305664 5.176132 0.284259 -86.719631 -1.263687 33.703367 21.907374 -36.809178 -8.095959 0.253087 -0.675034 -28.973090 28.988432 -11.719809 -6.004600 -7.125000 0.000000 0.000000 1.404300 17.560500 -0.915400 -8.479352 -4.296201 0.021265 86.844133 -1.329188 22.079902 -15.162503 29.405766 -4.594805 0.714732 0.849013 25.310174 -25.533792 -22.808194 11.108600 7.125000 0.000000 0.000000 3.809900 -56.190400 -1.046700 
0.216477 25.156450 -4.743464 -1.090386 0.887851 10.357752 -0.688942 -0.681785 -0.188230 -12.993167 4.050609 -27.786180 0.310970 7.979941 21.232839 1.719750 7.384651 30.133658 0.002000 -0.286700 -0.787700 -1.464053 0.074015 -0.282737 19.852961 0.002369 -28.370073 -4.769927 -13.929641 40.798794 0.095879 -10.146748 18.711553 -0.380400 -3.961100 10.967100 -0.768953 0.047078 4.876657 0.964112 0.144388 -2.035664 0.760293 -0.191580 3.896921 -3.714793 -1.619865 -5.702695 4.214120 -2.273459 29.228206 0.861200 -0.494100 10.212800 9.303312 5.191535 0.289111 -87.176347 -0.925442 33.578826 21.265702 -36.142352 -7.708043 0.243485 -0.681509 -28.776593 28.863505 -11.684051 -5.956200 -7.125000 0.000000 0.000000 1.326600 17.615900 -0.863100 -8.481356 -4.303799 0.031537 87.244691 -1.422876 21.507664 -15.016714 29.206562 -4.518780 0.719093 0.843991 25.712758 -25.571646 -22.758274 11.104800 7.125000 0.000000 0.000000 3.753600 -56.145100 -1.027100 
0.214149 25.149265 -4.588722 -1.095319 1.099672 10.196744 -0.705854 -0.718433 -0.241241 -12.763045 3.693854 -28.063824 0.216970 7.791985 20.637650 1.626598 7.605506 29.714495 0.001500 -0.253900 -0.697600 -1.412675 0.099117 -0.283452 19.773127 0.051961 -28.291285 -4.369391 -13.498695 39.199226 0.109282 -10.200234 18.690116 -0.359600 -3.852400 10.661900 -0.764427 -0.031751 5.157028 0.978593 0.044823 -2.009117 0.776561 -0.242399 3.882383 -3.685843 -1.601482 -5.799509 4.249273 -2.258321 29.296584 0.870100 -0.477900 10.269100 9.301785 5.209036 0.294624 -87.588248 -0.578222 33.545975 20.696395 -35.539182 -7.368924 0.234352 -0.687830 -28.573489 28.710963 -11.659494 -5.907200 -7.125000 0.000000 0.000000 1.228000 17.661600 -0.797700 -8.483427 -4.313675 0.041028 87.635110 -1.568159 20.959304 -14.927485 29.082623 -4.472352 0.721803 0.840160 26.025655 -25.604400 -22.718334 11.102700 7.125000 0.000000 0.000000 3.706400 -56.109300 -1.011000 
0.211113 25.130441 -4.431652 -1.103560 1.296833 10.022351 -0.725370 -0.750308 -0.292133 -12.514484 3.327677 -28.296007 0.135934 7.618570 20.078894 1.523834 7.935184 29.327890 0.001400 -0.241400 -0.663300 -1.356007 0.121312 -0.282506 19.672569 0.133212 -28.120416 -3.962709 -13.031310 37.512033 0.121794 -10.335585 18.765805 -0.340600 -3.750200 10.375000 -0.766135 -0.096790 5.410205 0.993376 -0.036896 -1.983892 0.800356 -0.284954 3.872561 -3.659240 -1.592285 -5.885069 4.288428 -2.257859 29.387320 0.879800 -0.467700 10.331000 9.301704 5.227520 0.300912 -87.960550 -0.203306 33.596045 20.199073 -35.004372 -7.077220 0.226062 -0.693771 -28.359694 28.525195 -11.608177 -5.836200 -7.125000 0.000000 0.000000 1.107500 17.740900 -0.717500 -8.484924 -4.325444 0.049547 87.996362 -1.773375 20.468494 -14.881870 29.018120 -4.448152 0.723252 0.837884 26.238434 -25.638771 -22.689340 11.106100 7.125000 0.000000 0.000000 3.661600 -56.085700 -0.996600 
